<svg width="171" height="43" viewBox="0 0 171 43" fill="none" xmlns="http://www.w3.org/2000/svg">
    <g clip-path="url(#clip0_9282_530)">
    <path d="M171 0H0V43H171V0Z" fill="#12B7F5"/>
    <path d="M42.0687 26.0468C41.7414 25.03 41.3831 24.0233 40.9945 23.0281L39.551 19.4348C39.5523 19.3921 39.5697 18.6854 39.5697 18.3201C39.5684 12.1761 36.6586 6 29.5001 6C22.3415 6 19.4318 12.1761 19.4318 18.3214C19.4318 18.6868 19.4492 19.3934 19.4505 19.4361L18.0057 23.0295C17.617 24.0245 17.2592 25.0312 16.9328 26.0482C15.5669 30.4255 16.0097 32.2389 16.3468 32.2789C17.0692 32.3656 19.1602 28.9829 19.1602 28.9829C19.1602 30.9415 20.1716 33.4989 22.3629 35.3442C21.5442 35.5949 20.5395 35.9829 19.8947 36.4576C19.314 36.8843 19.3876 37.3189 19.492 37.4949C19.9508 38.2656 27.3623 37.9869 29.5014 37.7469C31.6419 37.9869 39.0533 38.2656 39.5122 37.4949C39.6165 37.3189 39.6888 36.8843 39.1095 36.4576C38.4633 35.9829 37.46 35.5962 36.6399 35.3429C38.8299 33.4976 39.8413 30.9402 39.8413 28.9815C39.8413 28.9815 41.9323 32.3642 42.6547 32.2776C42.9905 32.2376 43.4319 30.4242 42.0687 26.0468ZM30.3857 12.4614C30.4379 11.0587 31.2673 9.95737 32.2386 10C33.2098 10.0427 33.9523 11.216 33.9001 12.6187C33.8479 14.0201 33.0185 15.1227 32.0472 15.0801C31.076 15.0374 30.3322 13.8641 30.3857 12.4614ZM26.7629 10C27.7328 9.95603 28.5623 11.0587 28.6144 12.4614C28.668 13.8641 27.9228 15.0361 26.9529 15.0787C25.9817 15.1227 25.1522 14.0201 25.1 12.6187C25.0479 11.216 25.7917 10.044 26.7629 10ZM23.3743 17.0588C23.6338 16.4854 26.2465 15.8481 29.4827 15.8481H29.5175C32.7523 15.8481 35.3663 16.4868 35.6259 17.0588C35.6382 17.0841 35.6446 17.1119 35.6446 17.1401C35.6446 17.1814 35.6312 17.2188 35.6098 17.2508C35.3918 17.5681 32.4887 19.1388 29.5188 19.1388H29.484C26.5128 19.1388 23.6111 17.5681 23.393 17.2508C23.3721 17.2238 23.3592 17.1914 23.3559 17.1574C23.3526 17.1235 23.359 17.0893 23.3743 17.0588ZM37.3168 28.5549C37.0225 33.4562 34.1021 36.5376 29.5924 36.5829H29.4091C24.9007 36.5389 21.9789 33.4562 21.686 28.5549C21.5776 26.7548 21.6873 25.2268 21.8826 23.9815C22.308 24.0655 22.7361 24.1442 23.1642 24.2162V28.8909C23.1642 28.8909 25.3823 29.3362 27.6031 29.0282V24.7282C28.2559 24.7642 28.8874 24.7815 29.484 24.7735H29.5175C31.7623 24.8015 34.4861 24.5015 37.1202 23.9815C37.3155 25.2268 37.4239 26.7548 37.3168 28.5549ZM27.4666 13.7387C27.8853 13.6841 28.1917 13.1934 28.1462 12.6387C28.1021 12.0854 27.7261 11.6787 27.3047 11.7334C26.886 11.7867 26.581 12.2787 26.6251 12.8321C26.6706 13.3881 27.0465 13.7921 27.4666 13.7387ZM32.8165 12.8747C32.9208 12.9241 33.1121 12.9307 33.2031 12.6801C33.2499 12.5534 33.2366 12.4601 33.1911 12.3947C33.1603 12.3507 33.0131 12.2374 32.6947 12.1601C31.4854 11.8667 30.9007 12.6721 30.8151 12.8254C30.7616 12.9214 30.7991 13.0601 30.89 13.1281C30.9797 13.1961 31.076 13.1774 31.1295 13.1201C31.9054 12.2827 32.7483 12.8427 32.8165 12.8747Z" fill="#F5F5F5"/>
    <path d="M52.4139 21.9659H53.9821L54.7704 22.9801L55.546 23.8835L57.0076 25.7159H55.286L54.2804 24.4801L53.7647 23.7472L52.4139 21.9659ZM57.1397 20.6364C57.1397 21.5881 56.9593 22.3977 56.5985 23.0653C56.2406 23.733 55.752 24.2429 55.1326 24.5952C54.5162 24.9446 53.823 25.1193 53.0531 25.1193C52.2775 25.1193 51.5815 24.9432 50.965 24.5909C50.3485 24.2386 49.8613 23.7287 49.5034 23.0611C49.1454 22.3935 48.9664 21.5852 48.9664 20.6364C48.9664 19.6847 49.1454 18.875 49.5034 18.2074C49.8613 17.5398 50.3485 17.0312 50.965 16.6818C51.5815 16.3295 52.2775 16.1534 53.0531 16.1534C53.823 16.1534 54.5162 16.3295 55.1326 16.6818C55.752 17.0312 56.2406 17.5398 56.5985 18.2074C56.9593 18.875 57.1397 19.6847 57.1397 20.6364ZM55.269 20.6364C55.269 20.0199 55.1767 19.5 54.992 19.0767C54.8102 18.6534 54.5531 18.3324 54.2207 18.1136C53.8883 17.8949 53.4991 17.7855 53.0531 17.7855C52.6071 17.7855 52.2179 17.8949 51.8855 18.1136C51.5531 18.3324 51.2946 18.6534 51.1099 19.0767C50.9281 19.5 50.8372 20.0199 50.8372 20.6364C50.8372 21.2528 50.9281 21.7727 51.1099 22.196C51.2946 22.6193 51.5531 22.9403 51.8855 23.1591C52.2179 23.3778 52.6071 23.4872 53.0531 23.4872C53.4991 23.4872 53.8883 23.3778 54.2207 23.1591C54.5531 22.9403 54.8102 22.6193 54.992 22.196C55.1767 21.7727 55.269 21.2528 55.269 20.6364ZM61.8006 21.9659H63.3688L64.1571 22.9801L64.9327 23.8835L66.3944 25.7159H64.6728L63.6671 24.4801L63.1515 23.7472L61.8006 21.9659ZM66.5265 20.6364C66.5265 21.5881 66.3461 22.3977 65.9853 23.0653C65.6273 23.733 65.1387 24.2429 64.5194 24.5952C63.9029 24.9446 63.2097 25.1193 62.4398 25.1193C61.6642 25.1193 60.9682 24.9432 60.3517 24.5909C59.7353 24.2386 59.248 23.7287 58.8901 23.0611C58.5321 22.3935 58.3532 21.5852 58.3532 20.6364C58.3532 19.6847 58.5321 18.875 58.8901 18.2074C59.248 17.5398 59.7353 17.0312 60.3517 16.6818C60.9682 16.3295 61.6642 16.1534 62.4398 16.1534C63.2097 16.1534 63.9029 16.3295 64.5194 16.6818C65.1387 17.0312 65.6273 17.5398 65.9853 18.2074C66.3461 18.875 66.5265 19.6847 66.5265 20.6364ZM64.6557 20.6364C64.6557 20.0199 64.5634 19.5 64.3787 19.0767C64.1969 18.6534 63.9398 18.3324 63.6074 18.1136C63.275 17.8949 62.8858 17.7855 62.4398 17.7855C61.9938 17.7855 61.6046 17.8949 61.2722 18.1136C60.9398 18.3324 60.6813 18.6534 60.4966 19.0767C60.3148 19.5 60.2239 20.0199 60.2239 20.6364C60.2239 21.2528 60.3148 21.7727 60.4966 22.196C60.6813 22.6193 60.9398 22.9403 61.2722 23.1591C61.6046 23.3778 61.9938 23.4872 62.4398 23.4872C62.8858 23.4872 63.275 23.3778 63.6074 23.1591C63.9398 22.9403 64.1969 22.6193 64.3787 22.196C64.5634 21.7727 64.6557 21.2528 64.6557 20.6364ZM67.8422 25V23.6705L70.9487 20.794C71.2129 20.5384 71.4345 20.3082 71.6135 20.1037C71.7953 19.8991 71.9331 19.6989 72.0268 19.5028C72.1206 19.304 72.1674 19.0895 72.1674 18.8594C72.1674 18.6037 72.1092 18.3835 71.9927 18.1989C71.8762 18.0114 71.7172 17.8679 71.5154 17.7685C71.3137 17.6662 71.085 17.6151 70.8294 17.6151C70.5623 17.6151 70.3294 17.669 70.1305 17.777C69.9316 17.8849 69.7782 18.0398 69.6703 18.2415C69.5623 18.4432 69.5083 18.6832 69.5083 18.9616H67.7569C67.7569 18.3906 67.8862 17.8949 68.1447 17.4744C68.4032 17.054 68.7654 16.7287 69.2314 16.4986C69.6973 16.2685 70.2342 16.1534 70.8422 16.1534C71.4672 16.1534 72.0112 16.2642 72.4743 16.4858C72.9402 16.7045 73.3024 17.0085 73.5609 17.3977C73.8194 17.7869 73.9487 18.233 73.9487 18.7358C73.9487 19.0653 73.8833 19.3906 73.7527 19.7116C73.6248 20.0327 73.3961 20.3892 73.0666 20.7812C72.737 21.1705 72.2725 21.6378 71.6731 22.1832L70.399 23.4318V23.4915H74.0637V25H67.8422ZM80.9934 17.116H86.0934V18.424H80.9934V17.116ZM81.1494 19.516H85.8654V20.836H81.1494V19.516ZM80.7294 22.084H86.3454V23.44H80.7294V22.084ZM81.0174 15.28L82.1574 14.884C82.5414 15.484 82.8654 16.288 82.9734 16.84L81.7494 17.296C81.6654 16.744 81.3654 15.904 81.0174 15.28ZM84.5574 14.8L85.9494 15.112C85.6254 15.868 85.3014 16.648 85.0254 17.164L83.8374 16.864C84.0894 16.3 84.4134 15.436 84.5574 14.8ZM82.7694 17.788H84.1614V26.08H82.7694V17.788ZM75.0654 17.344H80.8614V18.544H75.0654V17.344ZM75.7374 15.364H80.2854V20.512H75.6774V19.3H78.9534V16.576H75.7374V15.364ZM76.3014 21.436H77.6094V26.08H76.3014V21.436ZM76.8294 21.436H80.5014V25.504H76.8294V24.268H79.0974V22.672H76.8294V21.436ZM76.8774 15.832L78.2454 15.88C78.0774 19.408 77.5854 22.156 75.8574 23.908C75.6894 23.62 75.2094 23.044 74.9214 22.792C76.4214 21.364 76.7814 18.856 76.8774 15.832ZM88.4789 23.9858C88.1976 23.9858 87.9561 23.8864 87.7544 23.6875C87.5556 23.4886 87.4561 23.2472 87.4561 22.9631C87.4561 22.6847 87.5556 22.446 87.7544 22.2472C87.9561 22.0483 88.1976 21.9489 88.4789 21.9489C88.7516 21.9489 88.9902 22.0483 89.1948 22.2472C89.3993 22.446 89.5016 22.6847 89.5016 22.9631C89.5016 23.1506 89.4533 23.3224 89.3567 23.4787C89.263 23.6321 89.1394 23.7557 88.986 23.8494C88.8326 23.9403 88.6635 23.9858 88.4789 23.9858ZM88.4789 19.7031C88.1976 19.7031 87.9561 19.6037 87.7544 19.4048C87.5556 19.206 87.4561 18.9645 87.4561 18.6804C87.4561 18.402 87.5556 18.1648 87.7544 17.9688C87.9561 17.7699 88.1976 17.6705 88.4789 17.6705C88.7516 17.6705 88.9902 17.7699 89.1948 17.9688C89.3993 18.1648 89.5016 18.402 89.5016 18.6804C89.5016 18.8707 89.4533 19.044 89.3567 19.2003C89.263 19.3537 89.1394 19.4759 88.986 19.5668C88.8326 19.6577 88.6635 19.7031 88.4789 19.7031ZM94.0975 25L97.7154 17.8409V17.7812H93.5009V16.2727H99.6245V17.8026L96.0023 25H94.0975ZM100.889 25V23.6705L103.996 20.794C104.26 20.5384 104.481 20.3082 104.66 20.1037C104.842 19.8991 104.98 19.6989 105.074 19.5028C105.167 19.304 105.214 19.0895 105.214 18.8594C105.214 18.6037 105.156 18.3835 105.04 18.1989C104.923 18.0114 104.764 17.8679 104.562 17.7685C104.361 17.6662 104.132 17.6151 103.876 17.6151C103.609 17.6151 103.376 17.669 103.177 17.777C102.979 17.8849 102.825 18.0398 102.717 18.2415C102.609 18.4432 102.555 18.6832 102.555 18.9616H100.804C100.804 18.3906 100.933 17.8949 101.192 17.4744C101.45 17.054 101.812 16.7287 102.278 16.4986C102.744 16.2685 103.281 16.1534 103.889 16.1534C104.514 16.1534 105.058 16.2642 105.521 16.4858C105.987 16.7045 106.349 17.0085 106.608 17.3977C106.866 17.7869 106.996 18.233 106.996 18.7358C106.996 19.0653 106.93 19.3906 106.8 19.7116C106.672 20.0327 106.443 20.3892 106.113 20.7812C105.784 21.1705 105.319 21.6378 104.72 22.1832L103.446 23.4318V23.4915H107.111V25H100.889ZM112.244 16.2727V25H110.399V18.0241H110.348L108.35 19.277V17.6406L110.51 16.2727H112.244ZM117.668 25.1193C117.219 25.1165 116.786 25.0412 116.368 24.8935C115.954 24.7457 115.581 24.5057 115.252 24.1733C114.922 23.8409 114.661 23.4006 114.468 22.8523C114.278 22.304 114.182 21.6307 114.182 20.8324C114.185 20.0994 114.269 19.4446 114.434 18.8679C114.601 18.2884 114.84 17.7969 115.15 17.3935C115.462 16.9901 115.836 16.6832 116.27 16.473C116.705 16.2599 117.192 16.1534 117.732 16.1534C118.314 16.1534 118.829 16.267 119.275 16.4943C119.721 16.7187 120.079 17.0241 120.349 17.4105C120.621 17.7969 120.786 18.2301 120.843 18.7102H119.023C118.952 18.4062 118.803 18.1676 118.576 17.9943C118.349 17.821 118.067 17.7344 117.732 17.7344C117.164 17.7344 116.732 17.9815 116.437 18.4759C116.144 18.9702 115.995 19.642 115.989 20.4915H116.049C116.18 20.233 116.356 20.0128 116.577 19.831C116.802 19.6463 117.056 19.5057 117.34 19.4091C117.627 19.3097 117.93 19.2599 118.248 19.2599C118.765 19.2599 119.225 19.3821 119.628 19.6264C120.032 19.8679 120.35 20.2003 120.583 20.6236C120.816 21.0469 120.932 21.5312 120.932 22.0767C120.932 22.6676 120.795 23.1932 120.519 23.6534C120.246 24.1136 119.864 24.4744 119.373 24.7358C118.884 24.9943 118.316 25.1222 117.668 25.1193ZM117.66 23.6705C117.944 23.6705 118.198 23.6023 118.422 23.4659C118.647 23.3295 118.823 23.1449 118.951 22.9119C119.079 22.679 119.143 22.4176 119.143 22.1278C119.143 21.8381 119.079 21.5781 118.951 21.348C118.826 21.1179 118.653 20.9347 118.431 20.7983C118.209 20.6619 117.956 20.5938 117.672 20.5938C117.459 20.5938 117.262 20.6335 117.08 20.7131C116.901 20.7926 116.743 20.9034 116.607 21.0455C116.474 21.1875 116.368 21.3523 116.292 21.5398C116.215 21.7244 116.177 21.9219 116.177 22.1321C116.177 22.4134 116.241 22.6705 116.368 22.9034C116.499 23.1364 116.675 23.3224 116.897 23.4616C117.121 23.6009 117.376 23.6705 117.66 23.6705ZM122.241 25V23.6705L125.347 20.794C125.611 20.5384 125.833 20.3082 126.012 20.1037C126.194 19.8991 126.331 19.6989 126.425 19.5028C126.519 19.304 126.566 19.0895 126.566 18.8594C126.566 18.6037 126.508 18.3835 126.391 18.1989C126.275 18.0114 126.116 17.8679 125.914 17.7685C125.712 17.6662 125.483 17.6151 125.228 17.6151C124.961 17.6151 124.728 17.669 124.529 17.777C124.33 17.8849 124.177 18.0398 124.069 18.2415C123.961 18.4432 123.907 18.6832 123.907 18.9616H122.155C122.155 18.3906 122.285 17.8949 122.543 17.4744C122.802 17.054 123.164 16.7287 123.63 16.4986C124.096 16.2685 124.633 16.1534 125.241 16.1534C125.866 16.1534 126.41 16.2642 126.873 16.4858C127.339 16.7045 127.701 17.0085 127.959 17.3977C128.218 17.7869 128.347 18.233 128.347 18.7358C128.347 19.0653 128.282 19.3906 128.151 19.7116C128.023 20.0327 127.795 20.3892 127.465 20.7812C127.135 21.1705 126.671 21.6378 126.072 22.1832L124.797 23.4318V23.4915H128.462V25H122.241ZM133.149 25.1193C132.7 25.1165 132.267 25.0412 131.849 24.8935C131.434 24.7457 131.062 24.5057 130.732 24.1733C130.403 23.8409 130.142 23.4006 129.948 22.8523C129.758 22.304 129.663 21.6307 129.663 20.8324C129.666 20.0994 129.749 19.4446 129.914 18.8679C130.082 18.2884 130.32 17.7969 130.63 17.3935C130.943 16.9901 131.316 16.6832 131.751 16.473C132.186 16.2599 132.673 16.1534 133.213 16.1534C133.795 16.1534 134.309 16.267 134.755 16.4943C135.201 16.7187 135.559 17.0241 135.829 17.4105C136.102 17.7969 136.267 18.2301 136.323 18.7102H134.504C134.433 18.4062 134.284 18.1676 134.056 17.9943C133.829 17.821 133.548 17.7344 133.213 17.7344C132.644 17.7344 132.213 17.9815 131.917 18.4759C131.624 18.9702 131.475 19.642 131.47 20.4915H131.529C131.66 20.233 131.836 20.0128 132.058 19.831C132.282 19.6463 132.536 19.5057 132.82 19.4091C133.107 19.3097 133.41 19.2599 133.728 19.2599C134.245 19.2599 134.705 19.3821 135.109 19.6264C135.512 19.8679 135.83 20.2003 136.063 20.6236C136.296 21.0469 136.413 21.5312 136.413 22.0767C136.413 22.6676 136.275 23.1932 135.999 23.6534C135.727 24.1136 135.345 24.4744 134.853 24.7358C134.365 24.9943 133.796 25.1222 133.149 25.1193ZM133.14 23.6705C133.424 23.6705 133.678 23.6023 133.903 23.4659C134.127 23.3295 134.303 23.1449 134.431 22.9119C134.559 22.679 134.623 22.4176 134.623 22.1278C134.623 21.8381 134.559 21.5781 134.431 21.348C134.306 21.1179 134.133 20.9347 133.911 20.7983C133.69 20.6619 133.437 20.5938 133.153 20.5938C132.94 20.5938 132.742 20.6335 132.561 20.7131C132.382 20.7926 132.224 20.9034 132.088 21.0455C131.954 21.1875 131.849 21.3523 131.772 21.5398C131.695 21.7244 131.657 21.9219 131.657 22.1321C131.657 22.4134 131.721 22.6705 131.849 22.9034C131.98 23.1364 132.156 23.3224 132.377 23.4616C132.602 23.6009 132.856 23.6705 133.14 23.6705ZM137.721 25V23.6705L140.828 20.794C141.092 20.5384 141.313 20.3082 141.492 20.1037C141.674 19.8991 141.812 19.6989 141.906 19.5028C141.999 19.304 142.046 19.0895 142.046 18.8594C142.046 18.6037 141.988 18.3835 141.872 18.1989C141.755 18.0114 141.596 17.8679 141.394 17.7685C141.193 17.6662 140.964 17.6151 140.708 17.6151C140.441 17.6151 140.208 17.669 140.009 17.777C139.811 17.8849 139.657 18.0398 139.549 18.2415C139.441 18.4432 139.387 18.6832 139.387 18.9616H137.636C137.636 18.3906 137.765 17.8949 138.024 17.4744C138.282 17.054 138.644 16.7287 139.11 16.4986C139.576 16.2685 140.113 16.1534 140.721 16.1534C141.346 16.1534 141.89 16.2642 142.353 16.4858C142.819 16.7045 143.181 17.0085 143.44 17.3977C143.698 17.7869 143.828 18.233 143.828 18.7358C143.828 19.0653 143.762 19.3906 143.632 19.7116C143.504 20.0327 143.275 20.3892 142.945 20.7812C142.616 21.1705 142.151 21.6378 141.552 22.1832L140.278 23.4318V23.4915H143.943V25H137.721ZM148.535 25.1193C147.879 25.1193 147.295 25.0128 146.784 24.7997C146.275 24.5838 145.876 24.2898 145.586 23.9176C145.297 23.5455 145.152 23.1236 145.152 22.652C145.152 22.2884 145.234 21.9545 145.399 21.6506C145.567 21.3438 145.794 21.0895 146.081 20.8878C146.368 20.6832 146.689 20.5526 147.044 20.4957V20.4361C146.578 20.3423 146.2 20.1165 145.91 19.7585C145.621 19.3977 145.476 18.9787 145.476 18.5014C145.476 18.0497 145.608 17.6477 145.872 17.2955C146.136 16.9403 146.498 16.6619 146.959 16.4602C147.422 16.2557 147.947 16.1534 148.535 16.1534C149.123 16.1534 149.648 16.2557 150.108 16.4602C150.571 16.6648 150.934 16.9446 151.199 17.2997C151.463 17.652 151.596 18.0526 151.599 18.5014C151.596 18.9815 151.449 19.4006 151.156 19.7585C150.863 20.1165 150.488 20.3423 150.031 20.4361V20.4957C150.381 20.5526 150.697 20.6832 150.981 20.8878C151.268 21.0895 151.496 21.3438 151.663 21.6506C151.834 21.9545 151.92 22.2884 151.923 22.652C151.92 23.1236 151.774 23.5455 151.484 23.9176C151.194 24.2898 150.794 24.5838 150.282 24.7997C149.774 25.0128 149.192 25.1193 148.535 25.1193ZM148.535 23.7642C148.828 23.7642 149.084 23.7116 149.302 23.6065C149.521 23.4986 149.692 23.3509 149.814 23.1634C149.939 22.973 150.001 22.7543 150.001 22.5071C150.001 22.2543 149.937 22.0312 149.809 21.8381C149.682 21.642 149.508 21.4886 149.29 21.3778C149.071 21.2642 148.819 21.2074 148.535 21.2074C148.254 21.2074 148.003 21.2642 147.781 21.3778C147.559 21.4886 147.385 21.642 147.257 21.8381C147.132 22.0312 147.069 22.2543 147.069 22.5071C147.069 22.7543 147.131 22.973 147.253 23.1634C147.375 23.3509 147.547 23.4986 147.768 23.6065C147.99 23.7116 148.246 23.7642 148.535 23.7642ZM148.535 19.8651C148.78 19.8651 148.997 19.8153 149.187 19.7159C149.378 19.6165 149.527 19.4787 149.635 19.3026C149.743 19.1264 149.797 18.9233 149.797 18.6932C149.797 18.4659 149.743 18.267 149.635 18.0966C149.527 17.9233 149.379 17.7884 149.192 17.6918C149.004 17.5923 148.785 17.5426 148.535 17.5426C148.288 17.5426 148.069 17.5923 147.879 17.6918C147.689 17.7884 147.54 17.9233 147.432 18.0966C147.327 18.267 147.274 18.4659 147.274 18.6932C147.274 18.9233 147.328 19.1264 147.436 19.3026C147.544 19.4787 147.693 19.6165 147.883 19.7159C148.074 19.8153 148.291 19.8651 148.535 19.8651ZM156.439 25.1193C155.803 25.1193 155.236 25.0099 154.739 24.7912C154.244 24.5696 153.854 24.2656 153.567 23.8793C153.283 23.4901 153.137 23.0412 153.128 22.5327H154.986C154.997 22.7457 155.067 22.9332 155.195 23.0952C155.325 23.2543 155.499 23.3778 155.715 23.4659C155.931 23.554 156.173 23.598 156.443 23.598C156.725 23.598 156.973 23.5483 157.189 23.4489C157.405 23.3494 157.574 23.2116 157.696 23.0355C157.818 22.8594 157.879 22.6562 157.879 22.4261C157.879 22.1932 157.814 21.9872 157.683 21.8082C157.556 21.6264 157.371 21.4844 157.129 21.3821C156.891 21.2798 156.607 21.2287 156.277 21.2287H155.463V19.8736H156.277C156.556 19.8736 156.801 19.8253 157.014 19.7287C157.23 19.6321 157.398 19.4986 157.517 19.3281C157.637 19.1548 157.696 18.9531 157.696 18.723C157.696 18.5043 157.644 18.3125 157.539 18.1477C157.436 17.9801 157.291 17.8494 157.104 17.7557C156.919 17.6619 156.703 17.6151 156.456 17.6151C156.206 17.6151 155.977 17.6605 155.77 17.7514C155.563 17.8395 155.396 17.9659 155.271 18.1307C155.146 18.2955 155.08 18.4886 155.071 18.7102H153.303C153.311 18.2074 153.455 17.7642 153.733 17.3807C154.012 16.9972 154.387 16.6974 154.858 16.4815C155.333 16.2628 155.868 16.1534 156.465 16.1534C157.067 16.1534 157.594 16.2628 158.046 16.4815C158.497 16.7003 158.848 16.9957 159.098 17.3679C159.351 17.7372 159.476 18.152 159.473 18.6122C159.476 19.1009 159.324 19.5085 159.017 19.8352C158.713 20.1619 158.317 20.3693 157.828 20.4574V20.5256C158.47 20.608 158.959 20.831 159.294 21.1946C159.632 21.5554 159.8 22.0071 159.797 22.5497C159.8 23.0469 159.656 23.4886 159.367 23.875C159.08 24.2614 158.683 24.5653 158.178 24.7869C157.672 25.0085 157.093 25.1193 156.439 25.1193Z" fill="white"/>
    </g>
    <defs>
    <clipPath id="clip0_9282_530">
    <path d="M0 16C0 7.16344 7.16344 0 16 0H155C163.837 0 171 7.16344 171 16V27C171 35.8366 163.837 43 155 43H0V16Z" fill="white"/>
    </clipPath>
    </defs>
    </svg>
    