<svg width="171" height="43" viewBox="0 0 171 43" fill="none" xmlns="http://www.w3.org/2000/svg">
    <g clip-path="url(#clip0_9276_556)">
    <path d="M171 0H0V43H171V0Z" fill="#12B7F5"/>
    <path d="M42.0687 26.0468C41.7414 25.03 41.3831 24.0233 40.9945 23.0281L39.551 19.4348C39.5523 19.3921 39.5697 18.6854 39.5697 18.3201C39.5684 12.1761 36.6586 6 29.5001 6C22.3415 6 19.4318 12.1761 19.4318 18.3214C19.4318 18.6868 19.4492 19.3934 19.4505 19.4361L18.0057 23.0295C17.617 24.0245 17.2592 25.0312 16.9328 26.0482C15.5669 30.4255 16.0097 32.2389 16.3468 32.2789C17.0692 32.3656 19.1602 28.9829 19.1602 28.9829C19.1602 30.9415 20.1716 33.4989 22.3629 35.3442C21.5442 35.5949 20.5395 35.9829 19.8947 36.4576C19.314 36.8843 19.3876 37.3189 19.492 37.4949C19.9508 38.2656 27.3623 37.9869 29.5014 37.7469C31.6419 37.9869 39.0533 38.2656 39.5122 37.4949C39.6165 37.3189 39.6888 36.8843 39.1095 36.4576C38.4633 35.9829 37.46 35.5962 36.6399 35.3429C38.8299 33.4976 39.8413 30.9402 39.8413 28.9815C39.8413 28.9815 41.9323 32.3642 42.6547 32.2776C42.9905 32.2376 43.4319 30.4242 42.0687 26.0468ZM30.3857 12.4614C30.4379 11.0587 31.2673 9.95737 32.2386 10C33.2098 10.0427 33.9523 11.216 33.9001 12.6187C33.8479 14.0201 33.0185 15.1227 32.0472 15.0801C31.076 15.0374 30.3322 13.8641 30.3857 12.4614ZM26.7629 10C27.7328 9.95603 28.5623 11.0587 28.6144 12.4614C28.668 13.8641 27.9228 15.0361 26.9529 15.0787C25.9817 15.1227 25.1522 14.0201 25.1 12.6187C25.0479 11.216 25.7917 10.044 26.7629 10ZM23.3743 17.0588C23.6338 16.4854 26.2465 15.8481 29.4827 15.8481H29.5175C32.7523 15.8481 35.3663 16.4868 35.6259 17.0588C35.6382 17.0841 35.6446 17.1119 35.6446 17.1401C35.6446 17.1814 35.6312 17.2188 35.6098 17.2508C35.3918 17.5681 32.4887 19.1388 29.5188 19.1388H29.484C26.5128 19.1388 23.6111 17.5681 23.393 17.2508C23.3721 17.2238 23.3592 17.1914 23.3559 17.1574C23.3526 17.1235 23.359 17.0893 23.3743 17.0588ZM37.3168 28.5549C37.0225 33.4562 34.1021 36.5376 29.5924 36.5829H29.4091C24.9007 36.5389 21.9789 33.4562 21.686 28.5549C21.5776 26.7548 21.6873 25.2268 21.8826 23.9815C22.308 24.0655 22.7361 24.1442 23.1642 24.2162V28.8909C23.1642 28.8909 25.3823 29.3362 27.6031 29.0282V24.7282C28.2559 24.7642 28.8874 24.7815 29.484 24.7735H29.5175C31.7623 24.8015 34.4861 24.5015 37.1202 23.9815C37.3155 25.2268 37.4239 26.7548 37.3168 28.5549ZM27.4666 13.7387C27.8853 13.6841 28.1917 13.1934 28.1462 12.6387C28.1021 12.0854 27.7261 11.6787 27.3047 11.7334C26.886 11.7867 26.581 12.2787 26.6251 12.8321C26.6706 13.3881 27.0465 13.7921 27.4666 13.7387ZM32.8165 12.8747C32.9208 12.9241 33.1121 12.9307 33.2031 12.6801C33.2499 12.5534 33.2366 12.4601 33.1911 12.3947C33.1603 12.3507 33.0131 12.2374 32.6947 12.1601C31.4854 11.8667 30.9007 12.6721 30.8151 12.8254C30.7616 12.9214 30.7991 13.0601 30.89 13.1281C30.9797 13.1961 31.076 13.1774 31.1295 13.1201C31.9054 12.2827 32.7483 12.8427 32.8165 12.8747Z" fill="#F5F5F5"/>
    <path d="M48.8637 23.4602H50.6933L51.613 24.6435L52.5178 25.6974L54.2231 27.8352H52.2146L51.0413 26.3935L50.4397 25.5384L48.8637 23.4602ZM54.3772 21.9091C54.3772 23.0194 54.1668 23.964 53.7458 24.7429C53.3282 25.5218 52.7581 26.1167 52.0356 26.5277C51.3164 26.9354 50.5077 27.1392 49.6095 27.1392C48.7046 27.1392 47.8926 26.9337 47.1734 26.5227C46.4542 26.1117 45.8857 25.5168 45.4681 24.7379C45.0505 23.959 44.8417 23.0161 44.8417 21.9091C44.8417 20.7988 45.0505 19.8542 45.4681 19.0753C45.8857 18.2964 46.4542 17.7031 47.1734 17.2955C47.8926 16.8845 48.7046 16.679 49.6095 16.679C50.5077 16.679 51.3164 16.8845 52.0356 17.2955C52.7581 17.7031 53.3282 18.2964 53.7458 19.0753C54.1668 19.8542 54.3772 20.7988 54.3772 21.9091ZM52.1947 21.9091C52.1947 21.1899 52.087 20.5833 51.8715 20.0895C51.6594 19.5956 51.3595 19.2211 50.9717 18.9659C50.5839 18.7107 50.1298 18.5831 49.6095 18.5831C49.0891 18.5831 48.635 18.7107 48.2472 18.9659C47.8595 19.2211 47.5579 19.5956 47.3424 20.0895C47.1303 20.5833 47.0242 21.1899 47.0242 21.9091C47.0242 22.6283 47.1303 23.2348 47.3424 23.7287C47.5579 24.2225 47.8595 24.5971 48.2472 24.8523C48.635 25.1075 49.0891 25.2351 49.6095 25.2351C50.1298 25.2351 50.5839 25.1075 50.9717 24.8523C51.3595 24.5971 51.6594 24.2225 51.8715 23.7287C52.087 23.2348 52.1947 22.6283 52.1947 21.9091ZM59.8149 23.4602H61.6444L62.5642 24.6435L63.469 25.6974L65.1743 27.8352H63.1657L61.9925 26.3935L61.3909 25.5384L59.8149 23.4602ZM65.3284 21.9091C65.3284 23.0194 65.1179 23.964 64.697 24.7429C64.2794 25.5218 63.7093 26.1167 62.9868 26.5277C62.2675 26.9354 61.4588 27.1392 60.5606 27.1392C59.6558 27.1392 58.8438 26.9337 58.1246 26.5227C57.4053 26.1117 56.8369 25.5168 56.4193 24.7379C56.0017 23.959 55.7929 23.0161 55.7929 21.9091C55.7929 20.7988 56.0017 19.8542 56.4193 19.0753C56.8369 18.2964 57.4053 17.7031 58.1246 17.2955C58.8438 16.8845 59.6558 16.679 60.5606 16.679C61.4588 16.679 62.2675 16.8845 62.9868 17.2955C63.7093 17.7031 64.2794 18.2964 64.697 19.0753C65.1179 19.8542 65.3284 20.7988 65.3284 21.9091ZM63.1459 21.9091C63.1459 21.1899 63.0381 20.5833 62.8227 20.0895C62.6106 19.5956 62.3106 19.2211 61.9229 18.9659C61.5351 18.7107 61.081 18.5831 60.5606 18.5831C60.0403 18.5831 59.5862 18.7107 59.1984 18.9659C58.8106 19.2211 58.509 19.5956 58.2936 20.0895C58.0815 20.5833 57.9754 21.1899 57.9754 21.9091C57.9754 22.6283 58.0815 23.2348 58.2936 23.7287C58.509 24.2225 58.8106 24.5971 59.1984 24.8523C59.5862 25.1075 60.0403 25.2351 60.5606 25.2351C61.081 25.2351 61.5351 25.1075 61.9229 24.8523C62.3106 24.5971 62.6106 24.2225 62.8227 23.7287C63.0381 23.2348 63.1459 22.6283 63.1459 21.9091ZM73.3881 17.802H79.3381V19.328H73.3881V17.802ZM73.5701 20.602H79.0721V22.142H73.5701V20.602ZM73.0801 23.598H79.6321V25.18H73.0801V23.598ZM73.4161 15.66L74.7461 15.198C75.1941 15.898 75.5721 16.836 75.6981 17.48L74.2701 18.012C74.1721 17.368 73.8221 16.388 73.4161 15.66ZM77.5461 15.1L79.1701 15.464C78.7921 16.346 78.4141 17.256 78.0921 17.858L76.7061 17.508C77.0001 16.85 77.3781 15.842 77.5461 15.1ZM75.4601 18.586H77.0841V28.26H75.4601V18.586ZM66.4721 18.068H73.2341V19.468H66.4721V18.068ZM67.2561 15.758H72.5621V21.764H67.1861V20.35H71.0081V17.172H67.2561V15.758ZM67.9141 22.842H69.4401V28.26H67.9141V22.842ZM68.5301 22.842H72.8141V27.588H68.5301V26.146H71.1761V24.284H68.5301V22.842ZM68.5861 16.304L70.1821 16.36C69.9861 20.476 69.4121 23.682 67.3961 25.726C67.2001 25.39 66.6401 24.718 66.3041 24.424C68.0541 22.758 68.4741 19.832 68.5861 16.304ZM82.1212 25.8168C81.7931 25.8168 81.5113 25.7008 81.276 25.4688C81.044 25.2367 80.928 24.955 80.928 24.6236C80.928 24.2988 81.044 24.0204 81.276 23.7884C81.5113 23.5563 81.7931 23.4403 82.1212 23.4403C82.4394 23.4403 82.7178 23.5563 82.9564 23.7884C83.195 24.0204 83.3144 24.2988 83.3144 24.6236C83.3144 24.8423 83.258 25.0429 83.1453 25.2251C83.036 25.4041 82.8918 25.5483 82.7128 25.6577C82.5338 25.7637 82.3366 25.8168 82.1212 25.8168ZM82.1212 20.8203C81.7931 20.8203 81.5113 20.7043 81.276 20.4723C81.044 20.2403 80.928 19.9586 80.928 19.6271C80.928 19.3023 81.044 19.0256 81.276 18.7969C81.5113 18.5649 81.7931 18.4489 82.1212 18.4489C82.4394 18.4489 82.7178 18.5649 82.9564 18.7969C83.195 19.0256 83.3144 19.3023 83.3144 19.6271C83.3144 19.8492 83.258 20.0514 83.1453 20.2337C83.036 20.4126 82.8918 20.5552 82.7128 20.6612C82.5338 20.7673 82.3366 20.8203 82.1212 20.8203ZM92.1812 27.1392C91.6575 27.1359 91.1521 27.0481 90.6649 26.8757C90.181 26.7034 89.7468 26.4233 89.3623 26.0355C88.9778 25.6477 88.6729 25.134 88.4475 24.4943C88.2255 23.8546 88.1144 23.0691 88.1144 22.1378C88.1177 21.2827 88.2155 20.5187 88.4078 19.8459C88.6033 19.1697 88.8817 18.5964 89.243 18.1257C89.6076 17.6551 90.0434 17.2971 90.5505 17.0518C91.0576 16.8033 91.626 16.679 92.2558 16.679C92.9352 16.679 93.5351 16.8116 94.0555 17.0767C94.5758 17.3385 94.9935 17.6948 95.3083 18.1456C95.6265 18.5964 95.8187 19.1018 95.885 19.6619H93.7622C93.6793 19.3073 93.5053 19.0289 93.2401 18.8267C92.975 18.6245 92.6469 18.5234 92.2558 18.5234C91.5929 18.5234 91.0891 18.8118 90.7444 19.3885C90.403 19.9652 90.229 20.7491 90.2224 21.7401H90.292C90.4445 21.4384 90.6499 21.1816 90.9085 20.9695C91.1703 20.754 91.4669 20.59 91.7984 20.4773C92.1331 20.3613 92.4861 20.3033 92.8573 20.3033C93.4606 20.3033 93.9975 20.4458 94.4681 20.7308C94.9388 21.0125 95.31 21.4003 95.5818 21.8942C95.8535 22.388 95.9894 22.9531 95.9894 23.5895C95.9894 24.2789 95.8287 24.892 95.5072 25.429C95.189 25.9659 94.7432 26.3868 94.1698 26.6918C93.5998 26.9934 92.9369 27.1425 92.1812 27.1392ZM92.1713 25.4489C92.5027 25.4489 92.7993 25.3693 93.0612 25.2102C93.323 25.0511 93.5285 24.8357 93.6776 24.5639C93.8268 24.2921 93.9014 23.9872 93.9014 23.6491C93.9014 23.3111 93.8268 23.0078 93.6776 22.7393C93.5318 22.4709 93.3296 22.2571 93.0711 22.098C92.8126 21.9389 92.5176 21.8594 92.1862 21.8594C91.9376 21.8594 91.7072 21.9058 91.4951 21.9986C91.2863 22.0914 91.1024 22.2206 90.9433 22.3864C90.7875 22.5521 90.6649 22.7443 90.5754 22.9631C90.4859 23.1785 90.4411 23.4089 90.4411 23.6541C90.4411 23.9822 90.5157 24.2822 90.6649 24.554C90.8173 24.8258 91.0228 25.0429 91.2813 25.2053C91.5432 25.3677 91.8398 25.4489 92.1713 25.4489ZM101.508 27.2237C100.653 27.2204 99.917 27.0099 99.3005 26.5923C98.6874 26.1747 98.2151 25.5698 97.8836 24.7777C97.5555 23.9856 97.3931 23.0327 97.3964 21.919C97.3964 20.8087 97.5605 19.8625 97.8886 19.0803C98.22 18.2981 98.6923 17.7031 99.3055 17.2955C99.922 16.8845 100.656 16.679 101.508 16.679C102.36 16.679 103.092 16.8845 103.705 17.2955C104.322 17.7064 104.796 18.303 105.127 19.0852C105.459 19.8641 105.623 20.8087 105.619 21.919C105.619 23.036 105.454 23.9905 105.122 24.7827C104.794 25.5748 104.323 26.1797 103.71 26.5973C103.097 27.0149 102.363 27.2237 101.508 27.2237ZM101.508 25.4389C102.091 25.4389 102.557 25.1456 102.905 24.5589C103.253 23.9723 103.425 23.0923 103.422 21.919C103.422 21.1468 103.342 20.5038 103.183 19.9901C103.028 19.4763 102.805 19.0902 102.517 18.8317C102.232 18.5732 101.896 18.4439 101.508 18.4439C100.928 18.4439 100.464 18.7339 100.116 19.3139C99.7678 19.8939 99.5922 20.7623 99.5889 21.919C99.5889 22.7012 99.6668 23.3542 99.8225 23.8778C99.9816 24.3982 100.205 24.7893 100.494 25.0511C100.782 25.3097 101.12 25.4389 101.508 25.4389ZM107.284 27L111.505 18.6477V18.5781H106.588V16.8182H113.732V18.603L109.506 27H107.284ZM118.789 27.1392C118.086 27.1392 117.46 27.0099 116.91 26.7514C116.363 26.4929 115.929 26.1366 115.607 25.6825C115.286 25.2285 115.118 24.7081 115.105 24.1214H117.193C117.216 24.5159 117.382 24.8357 117.69 25.081C117.999 25.3262 118.365 25.4489 118.789 25.4489C119.127 25.4489 119.426 25.3743 119.684 25.2251C119.946 25.0727 120.15 24.8622 120.296 24.5938C120.445 24.322 120.519 24.0104 120.519 23.6591C120.519 23.3011 120.443 22.9863 120.291 22.7145C120.141 22.4427 119.934 22.2306 119.669 22.0781C119.404 21.9257 119.101 21.8478 118.759 21.8445C118.461 21.8445 118.171 21.9058 117.889 22.0284C117.611 22.151 117.394 22.3184 117.238 22.5305L115.324 22.1875L115.806 16.8182H122.031V18.5781H117.581L117.318 21.1286H117.377C117.556 20.8767 117.826 20.6679 118.188 20.5021C118.549 20.3364 118.953 20.2536 119.401 20.2536C120.014 20.2536 120.561 20.3977 121.041 20.6861C121.522 20.9744 121.901 21.3705 122.18 21.8743C122.458 22.3748 122.596 22.9515 122.592 23.6044C122.596 24.2905 122.437 24.9003 122.115 25.4339C121.797 25.9643 121.351 26.3819 120.778 26.6868C120.208 26.9884 119.545 27.1392 118.789 27.1392ZM127.892 27.1392C127.127 27.1392 126.445 27.0149 125.849 26.7663C125.256 26.5144 124.79 26.1714 124.452 25.7372C124.114 25.303 123.945 24.8108 123.945 24.2607C123.945 23.8364 124.041 23.447 124.233 23.0923C124.429 22.7344 124.694 22.4377 125.028 22.2024C125.363 21.9638 125.738 21.8113 126.152 21.745V21.6754C125.609 21.5661 125.168 21.3026 124.83 20.8849C124.492 20.464 124.323 19.9751 124.323 19.4183C124.323 18.8913 124.477 18.4223 124.785 18.0114C125.093 17.5971 125.516 17.2723 126.053 17.0369C126.593 16.7983 127.206 16.679 127.892 16.679C128.578 16.679 129.19 16.7983 129.727 17.0369C130.267 17.2756 130.691 17.602 130.999 18.0163C131.308 18.4273 131.463 18.8946 131.467 19.4183C131.463 19.9785 131.291 20.4673 130.95 20.8849C130.608 21.3026 130.171 21.5661 129.637 21.6754V21.745C130.045 21.8113 130.414 21.9638 130.746 22.2024C131.081 22.4377 131.346 22.7344 131.541 23.0923C131.74 23.447 131.841 23.8364 131.845 24.2607C131.841 24.8108 131.671 25.303 131.332 25.7372C130.994 26.1714 130.527 26.5144 129.93 26.7663C129.337 27.0149 128.658 27.1392 127.892 27.1392ZM127.892 25.5582C128.234 25.5582 128.532 25.4969 128.787 25.3743C129.042 25.2483 129.241 25.076 129.384 24.8572C129.529 24.6352 129.602 24.38 129.602 24.0916C129.602 23.7966 129.528 23.5365 129.379 23.3111C129.229 23.0824 129.027 22.9034 128.772 22.7741C128.517 22.6416 128.224 22.5753 127.892 22.5753C127.564 22.5753 127.271 22.6416 127.012 22.7741C126.754 22.9034 126.55 23.0824 126.401 23.3111C126.255 23.5365 126.182 23.7966 126.182 24.0916C126.182 24.38 126.253 24.6352 126.396 24.8572C126.538 25.076 126.739 25.2483 126.997 25.3743C127.256 25.4969 127.554 25.5582 127.892 25.5582ZM127.892 21.0092C128.177 21.0092 128.431 20.9512 128.653 20.8352C128.875 20.7192 129.049 20.5585 129.175 20.353C129.301 20.1475 129.364 19.9105 129.364 19.642C129.364 19.3769 129.301 19.1449 129.175 18.946C129.049 18.7438 128.877 18.5864 128.658 18.4737C128.439 18.3577 128.184 18.2997 127.892 18.2997C127.604 18.2997 127.349 18.3577 127.127 18.4737C126.904 18.5864 126.73 18.7438 126.604 18.946C126.482 19.1449 126.421 19.3769 126.421 19.642C126.421 19.9105 126.484 20.1475 126.609 20.353C126.735 20.5585 126.909 20.7192 127.131 20.8352C127.354 20.9512 127.607 21.0092 127.892 21.0092ZM137.257 27.1392C136.734 27.1359 136.228 27.0481 135.741 26.8757C135.257 26.7034 134.823 26.4233 134.438 26.0355C134.054 25.6477 133.749 25.134 133.524 24.4943C133.302 23.8546 133.191 23.0691 133.191 22.1378C133.194 21.2827 133.292 20.5187 133.484 19.8459C133.679 19.1697 133.958 18.5964 134.319 18.1257C134.684 17.6551 135.12 17.2971 135.627 17.0518C136.134 16.8033 136.702 16.679 137.332 16.679C138.011 16.679 138.611 16.8116 139.132 17.0767C139.652 17.3385 140.07 17.6948 140.384 18.1456C140.703 18.5964 140.895 19.1018 140.961 19.6619H138.838C138.755 19.3073 138.581 19.0289 138.316 18.8267C138.051 18.6245 137.723 18.5234 137.332 18.5234C136.669 18.5234 136.165 18.8118 135.821 19.3885C135.479 19.9652 135.305 20.7491 135.299 21.7401H135.368C135.521 21.4384 135.726 21.1816 135.985 20.9695C136.246 20.754 136.543 20.59 136.875 20.4773C137.209 20.3613 137.562 20.3033 137.934 20.3033C138.537 20.3033 139.074 20.4458 139.544 20.7308C140.015 21.0125 140.386 21.4003 140.658 21.8942C140.93 22.388 141.066 22.9531 141.066 23.5895C141.066 24.2789 140.905 24.892 140.583 25.429C140.265 25.9659 139.819 26.3868 139.246 26.6918C138.676 26.9934 138.013 27.1425 137.257 27.1392ZM137.247 25.4489C137.579 25.4489 137.876 25.3693 138.137 25.2102C138.399 25.0511 138.605 24.8357 138.754 24.5639C138.903 24.2921 138.978 23.9872 138.978 23.6491C138.978 23.3111 138.903 23.0078 138.754 22.7393C138.608 22.4709 138.406 22.2571 138.147 22.098C137.889 21.9389 137.594 21.8594 137.262 21.8594C137.014 21.8594 136.783 21.9058 136.571 21.9986C136.362 22.0914 136.179 22.2206 136.019 22.3864C135.864 22.5521 135.741 22.7443 135.652 22.9631C135.562 23.1785 135.517 23.4089 135.517 23.6541C135.517 23.9822 135.592 24.2822 135.741 24.554C135.893 24.8258 136.099 25.0429 136.358 25.2053C136.619 25.3677 136.916 25.4489 137.247 25.4489ZM146.584 27.2237C145.729 27.2204 144.993 27.0099 144.377 26.5923C143.764 26.1747 143.291 25.5698 142.96 24.7777C142.632 23.9856 142.469 23.0327 142.473 21.919C142.473 20.8087 142.637 19.8625 142.965 19.0803C143.296 18.2981 143.768 17.7031 144.382 17.2955C144.998 16.8845 145.732 16.679 146.584 16.679C147.436 16.679 148.168 16.8845 148.782 17.2955C149.398 17.7064 149.872 18.303 150.203 19.0852C150.535 19.8641 150.699 20.8087 150.696 21.919C150.696 23.036 150.53 23.9905 150.198 24.7827C149.87 25.5748 149.4 26.1797 148.786 26.5973C148.173 27.0149 147.439 27.2237 146.584 27.2237ZM146.584 25.4389C147.167 25.4389 147.633 25.1456 147.981 24.5589C148.329 23.9723 148.501 23.0923 148.498 21.919C148.498 21.1468 148.419 20.5038 148.259 19.9901C148.104 19.4763 147.882 19.0902 147.593 18.8317C147.308 18.5732 146.972 18.4439 146.584 18.4439C146.004 18.4439 145.54 18.7339 145.192 19.3139C144.844 19.8939 144.668 20.7623 144.665 21.919C144.665 22.7012 144.743 23.3542 144.899 23.8778C145.058 24.3982 145.282 24.7893 145.57 25.0511C145.858 25.3097 146.196 25.4389 146.584 25.4389ZM156.66 16.8182V27H154.508V18.8615H154.448L152.116 20.3232V18.4141L154.637 16.8182H156.66ZM163.51 16.8182V27H161.357V18.8615H161.297L158.966 20.3232V18.4141L161.486 16.8182H163.51Z" fill="white"/>
    </g>
    <defs>
    <clipPath id="clip0_9276_556">
    <path d="M0 16C0 7.16344 7.16344 0 16 0H155C163.837 0 171 7.16344 171 16V27C171 35.8366 163.837 43 155 43H0V16Z" fill="white"/>
    </clipPath>
    </defs>
    </svg>
    