<svg width="171" height="43" viewBox="0 0 171 43" fill="none" xmlns="http://www.w3.org/2000/svg">
    <g clip-path="url(#clip0_9276_555)">
    <path d="M171 0H0V43H171V0Z" fill="#555555"/>
    <path d="M63.3928 27H61.086L64.6009 16.8182H67.3751L70.885 27H68.5782L66.0278 19.1449H65.9482L63.3928 27ZM63.2487 22.9979H68.6975V24.6783H63.2487V22.9979ZM75.1556 30.0227C74.4695 30.0227 73.8812 29.9283 73.3907 29.7393C72.9035 29.5537 72.5157 29.3002 72.2274 28.9787C71.939 28.6572 71.7517 28.2959 71.6656 27.8949L73.6244 27.6314C73.684 27.7839 73.7785 27.9264 73.9078 28.0589C74.037 28.1915 74.2077 28.2976 74.4198 28.3771C74.6353 28.46 74.8971 28.5014 75.2053 28.5014C75.666 28.5014 76.0455 28.3887 76.3438 28.1634C76.6454 27.9413 76.7963 27.5684 76.7963 27.0447V25.6477H76.7068C76.614 25.8598 76.4748 26.0604 76.2892 26.2493C76.1035 26.4382 75.8649 26.5923 75.5732 26.7116C75.2816 26.831 74.9336 26.8906 74.5292 26.8906C73.9558 26.8906 73.4338 26.758 72.9632 26.4929C72.4958 26.2244 72.123 25.8151 71.8445 25.2649C71.5695 24.7114 71.4319 24.0121 71.4319 23.1669C71.4319 22.3018 71.5728 21.5793 71.8545 20.9993C72.1362 20.4193 72.5107 19.9851 72.9781 19.6967C73.4487 19.4084 73.9641 19.2642 74.5242 19.2642C74.9518 19.2642 75.3097 19.3371 75.5981 19.483C75.8865 19.6255 76.1185 19.8045 76.2941 20.0199C76.4731 20.232 76.6106 20.4408 76.7068 20.6463H76.7863V19.3636H78.8893V27.0746C78.8893 27.7242 78.7302 28.2678 78.412 28.7053C78.0938 29.1428 77.653 29.4709 77.0896 29.6896C76.5294 29.9117 75.8848 30.0227 75.1556 30.0227ZM75.2004 25.2997C75.5418 25.2997 75.8301 25.2152 76.0654 25.0462C76.3041 24.8738 76.4864 24.6286 76.6123 24.3104C76.7416 23.9889 76.8062 23.6044 76.8062 23.157C76.8062 22.7095 76.7432 22.3217 76.6173 21.9936C76.4913 21.6622 76.309 21.4053 76.0704 21.223C75.8318 21.0407 75.5418 20.9496 75.2004 20.9496C74.8524 20.9496 74.559 21.044 74.3204 21.233C74.0818 21.4186 73.9011 21.6771 73.7785 22.0085C73.6559 22.34 73.5945 22.7228 73.5945 23.157C73.5945 23.5978 73.6559 23.9789 73.7785 24.3004C73.9044 24.6186 74.0851 24.8655 74.3204 25.0412C74.559 25.2135 74.8524 25.2997 75.2004 25.2997ZM80.5747 27V19.3636H82.6279V20.696H82.7075C82.8467 20.2221 83.0803 19.8641 83.4085 19.6222C83.7366 19.3769 84.1144 19.2543 84.542 19.2543C84.6481 19.2543 84.7624 19.2609 84.885 19.2741C85.0077 19.2874 85.1154 19.3056 85.2082 19.3288V21.2081C85.1088 21.1783 84.9712 21.1518 84.7955 21.1286C84.6199 21.1054 84.4591 21.0938 84.3133 21.0938C84.0017 21.0938 83.7233 21.1617 83.4781 21.2976C83.2361 21.4302 83.0439 21.6158 82.9014 21.8544C82.7622 22.093 82.6926 22.3681 82.6926 22.6797V27H80.5747ZM89.5832 27V16.8182H93.6002C94.3692 16.8182 95.0254 16.9557 95.569 17.2308C96.1159 17.5026 96.5318 17.8887 96.8169 18.3892C97.1052 18.8864 97.2494 19.4714 97.2494 20.1442C97.2494 20.8203 97.1035 21.402 96.8119 21.8892C96.5202 22.3731 96.0976 22.7443 95.5441 23.0028C94.9939 23.2614 94.3277 23.3906 93.5455 23.3906H90.8559V21.6605H93.1975C93.6085 21.6605 93.9499 21.6042 94.2217 21.4915C94.4935 21.3788 94.6956 21.2098 94.8282 20.9844C94.9641 20.759 95.032 20.4789 95.032 20.1442C95.032 19.8061 94.9641 19.5211 94.8282 19.2891C94.6956 19.0571 94.4918 18.8814 94.2167 18.7621C93.9449 18.6394 93.6019 18.5781 93.1876 18.5781H91.7359V27H89.5832ZM95.0818 22.3665L97.6123 27H95.2359L92.76 22.3665H95.0818ZM102.088 27.1491C101.302 27.1491 100.626 26.9901 100.06 26.6719C99.4961 26.3504 99.0619 25.8963 98.757 25.3097C98.4521 24.7197 98.2996 24.022 98.2996 23.2166C98.2996 22.4311 98.4521 21.7417 98.757 21.1484C99.0619 20.5552 99.4912 20.0928 100.045 19.7614C100.601 19.4299 101.254 19.2642 102.003 19.2642C102.507 19.2642 102.976 19.3454 103.41 19.5078C103.848 19.6669 104.229 19.9072 104.554 20.2287C104.882 20.5502 105.137 20.9545 105.32 21.4418C105.502 21.9257 105.593 22.4924 105.593 23.142V23.7237H99.1448V22.4112H103.599C103.599 22.1063 103.533 21.8362 103.4 21.6009C103.268 21.3655 103.084 21.1816 102.849 21.049C102.617 20.9131 102.347 20.8452 102.038 20.8452C101.717 20.8452 101.432 20.9197 101.183 21.0689C100.938 21.2147 100.746 21.4119 100.606 21.6605C100.467 21.9058 100.396 22.1792 100.393 22.4808V23.7287C100.393 24.1065 100.462 24.433 100.601 24.7081C100.744 24.9832 100.945 25.1953 101.203 25.3445C101.462 25.4936 101.768 25.5682 102.123 25.5682C102.358 25.5682 102.574 25.535 102.769 25.4688C102.965 25.4025 103.132 25.303 103.271 25.1705C103.41 25.0379 103.516 24.8755 103.589 24.6832L105.548 24.8125C105.449 25.2831 105.245 25.6941 104.937 26.0455C104.632 26.3935 104.237 26.6652 103.753 26.8608C103.273 27.053 102.718 27.1491 102.088 27.1491ZM109.153 27.1442C108.665 27.1442 108.231 27.0597 107.85 26.8906C107.469 26.7183 107.167 26.4647 106.945 26.13C106.726 25.7919 106.617 25.371 106.617 24.8672C106.617 24.4429 106.695 24.0866 106.851 23.7983C107.007 23.5099 107.219 23.2779 107.487 23.1023C107.756 22.9266 108.061 22.794 108.402 22.7045C108.747 22.6151 109.108 22.5521 109.486 22.5156C109.93 22.4692 110.288 22.4261 110.56 22.3864C110.831 22.3433 111.029 22.2803 111.151 22.1974C111.274 22.1146 111.335 21.992 111.335 21.8295V21.7997C111.335 21.4848 111.236 21.2412 111.037 21.0689C110.841 20.8965 110.563 20.8104 110.202 20.8104C109.82 20.8104 109.517 20.8949 109.292 21.0639C109.066 21.2296 108.917 21.4384 108.844 21.6903L106.886 21.5312C106.985 21.0672 107.181 20.6662 107.472 20.3281C107.764 19.9867 108.14 19.7249 108.601 19.5426C109.065 19.357 109.602 19.2642 110.212 19.2642C110.636 19.2642 111.042 19.3139 111.43 19.4134C111.821 19.5128 112.167 19.6669 112.469 19.8757C112.774 20.0845 113.014 20.353 113.19 20.6811C113.365 21.0059 113.453 21.3954 113.453 21.8494V27H111.445V25.9411H111.385C111.262 26.1797 111.098 26.3902 110.893 26.5724C110.687 26.7514 110.44 26.8923 110.152 26.995C109.864 27.0945 109.53 27.1442 109.153 27.1442ZM109.759 25.6825C110.071 25.6825 110.346 25.6212 110.584 25.4986C110.823 25.3726 111.01 25.2036 111.146 24.9915C111.282 24.7794 111.35 24.5391 111.35 24.2706V23.4602C111.284 23.5033 111.193 23.5431 111.077 23.5795C110.964 23.6127 110.836 23.6442 110.694 23.674C110.551 23.7005 110.409 23.7254 110.266 23.7486C110.124 23.7685 109.994 23.7867 109.878 23.8033C109.63 23.8397 109.413 23.8977 109.227 23.9773C109.042 24.0568 108.897 24.1645 108.795 24.3004C108.692 24.433 108.641 24.5987 108.641 24.7976C108.641 25.0859 108.745 25.3063 108.954 25.4588C109.166 25.608 109.434 25.6825 109.759 25.6825ZM117.91 27.1243C117.33 27.1243 116.805 26.9751 116.334 26.6768C115.867 26.3752 115.496 25.9328 115.22 25.3494C114.949 24.7628 114.813 24.0436 114.813 23.1918C114.813 22.3168 114.954 21.5893 115.235 21.0092C115.517 20.4259 115.892 19.9901 116.359 19.7017C116.83 19.41 117.345 19.2642 117.905 19.2642C118.333 19.2642 118.689 19.3371 118.974 19.483C119.262 19.6255 119.494 19.8045 119.67 20.0199C119.849 20.232 119.985 20.4408 120.078 20.6463H120.142V16.8182H122.255V27H120.167V25.777H120.078C119.978 25.9891 119.837 26.1996 119.655 26.4084C119.476 26.6139 119.242 26.7846 118.954 26.9205C118.669 27.0563 118.321 27.1243 117.91 27.1243ZM118.581 25.4389C118.923 25.4389 119.211 25.3461 119.446 25.1605C119.685 24.9716 119.867 24.7081 119.993 24.37C120.122 24.032 120.187 23.6359 120.187 23.1818C120.187 22.7277 120.124 22.3333 119.998 21.9986C119.872 21.6638 119.69 21.4053 119.451 21.223C119.213 21.0407 118.923 20.9496 118.581 20.9496C118.233 20.9496 117.94 21.044 117.701 21.233C117.463 21.4219 117.282 21.6837 117.159 22.0185C117.037 22.3532 116.975 22.741 116.975 23.1818C116.975 23.6259 117.037 24.0187 117.159 24.3601C117.285 24.6982 117.466 24.9633 117.701 25.1555C117.94 25.3445 118.233 25.4389 118.581 25.4389ZM127.477 27.1491C126.691 27.1491 126.015 26.9901 125.448 26.6719C124.885 26.3504 124.451 25.8963 124.146 25.3097C123.841 24.7197 123.688 24.022 123.688 23.2166C123.688 22.4311 123.841 21.7417 124.146 21.1484C124.451 20.5552 124.88 20.0928 125.433 19.7614C125.99 19.4299 126.643 19.2642 127.392 19.2642C127.896 19.2642 128.365 19.3454 128.799 19.5078C129.237 19.6669 129.618 19.9072 129.943 20.2287C130.271 20.5502 130.526 20.9545 130.708 21.4418C130.89 21.9257 130.982 22.4924 130.982 23.142V23.7237H124.533V22.4112H128.988C128.988 22.1063 128.922 21.8362 128.789 21.6009C128.657 21.3655 128.473 21.1816 128.237 21.049C128.005 20.9131 127.735 20.8452 127.427 20.8452C127.105 20.8452 126.82 20.9197 126.572 21.0689C126.327 21.2147 126.134 21.4119 125.995 21.6605C125.856 21.9058 125.785 22.1792 125.781 22.4808V23.7287C125.781 24.1065 125.851 24.433 125.99 24.7081C126.133 24.9832 126.333 25.1953 126.592 25.3445C126.85 25.4936 127.157 25.5682 127.511 25.5682C127.747 25.5682 127.962 25.535 128.158 25.4688C128.353 25.4025 128.521 25.303 128.66 25.1705C128.799 25.0379 128.905 24.8755 128.978 24.6832L130.937 24.8125C130.837 25.2831 130.634 25.6941 130.325 26.0455C130.02 26.3935 129.626 26.6652 129.142 26.8608C128.662 27.053 128.106 27.1491 127.477 27.1491ZM132.364 27V19.3636H134.417V20.696H134.497C134.636 20.2221 134.869 19.8641 135.198 19.6222C135.526 19.3769 135.903 19.2543 136.331 19.2543C136.437 19.2543 136.551 19.2609 136.674 19.2741C136.797 19.2874 136.904 19.3056 136.997 19.3288V21.2081C136.898 21.1783 136.76 21.1518 136.585 21.1286C136.409 21.1054 136.248 21.0938 136.102 21.0938C135.791 21.0938 135.512 21.1617 135.267 21.2976C135.025 21.4302 134.833 21.6158 134.69 21.8544C134.551 22.093 134.482 22.3681 134.482 22.6797V27H132.364Z" fill="white"/>
    <g clip-path="url(#clip1_9276_555)">
    <path d="M34.653 38C43.6586 38 50.9602 30.836 50.9602 22C50.9602 13.164 43.6586 6 34.653 6C25.6473 6 18.3457 13.164 18.3457 22C18.3457 30.836 25.6473 38 34.653 38Z" fill="url(#paint0_linear_9276_555)"/>
    <path fill-rule="evenodd" clip-rule="evenodd" d="M25.7179 21.8281C28.8795 20.4719 32.0477 19.1306 35.2223 17.8041C39.7449 15.9534 40.6948 15.6335 41.3063 15.6201C41.4422 15.6201 41.7411 15.6468 41.945 15.8068C42.1081 15.9401 42.1488 16.1135 42.176 16.2468C42.2032 16.3801 42.2304 16.6601 42.2032 16.8734C41.9586 19.4041 40.8986 25.5455 40.355 28.3695C40.124 29.5695 39.6756 29.9681 39.2421 30.0081C38.2908 30.0881 37.5719 29.3948 36.6628 28.8081C35.2223 27.8895 34.4219 27.3161 33.0236 26.4108C31.4064 25.3708 32.4528 24.7988 33.3769 23.8668C33.6215 23.6268 37.7894 19.8961 37.8709 19.5628C37.8845 19.5228 37.8845 19.3628 37.7894 19.2828C37.6942 19.2028 37.5583 19.2295 37.4496 19.2561C37.3001 19.2828 35.0198 20.7761 30.5788 23.7201C29.9265 24.1601 29.3436 24.3735 28.8136 24.3601C28.2292 24.3468 27.1176 24.0401 26.2751 23.7734C25.2559 23.4534 24.4419 23.2801 24.5098 22.7201C24.5506 22.4268 24.9569 22.1335 25.7179 21.8281Z" fill="white"/>
    </g>
    </g>
    <defs>
    <linearGradient id="paint0_linear_9276_555" x1="34.6394" y1="6" x2="34.6394" y2="37.7467" gradientUnits="userSpaceOnUse">
    <stop stop-color="#2AABEE"/>
    <stop offset="1" stop-color="#229ED9"/>
    </linearGradient>
    <clipPath id="clip0_9276_555">
    <path d="M0 16C0 7.16344 7.16344 0 16 0H155C163.837 0 171 7.16344 171 16V43H16C7.16344 43 0 35.8366 0 27V16Z" fill="white"/>
    </clipPath>
    <clipPath id="clip1_9276_555">
    <path d="M18.3457 22C18.3457 13.1634 25.5091 6 34.3457 6H34.9602C43.7968 6 50.9602 13.1634 50.9602 22V22C50.9602 30.8366 43.7968 38 34.9602 38H34.3457C25.5091 38 18.3457 30.8366 18.3457 22V22Z" fill="white"/>
    </clipPath>
    </defs>
    </svg>
    